<?xml version="1.0" standalone="no"?>
<!DOCTYPE svg PUBLIC "-//W3C//DTD SVG 20010904//EN"
 "http://www.w3.org/TR/2001/REC-SVG-20010904/DTD/svg10.dtd">
<svg version="1.0" xmlns="http://www.w3.org/2000/svg"
 width="500.000000pt" height="500.000000pt" viewBox="0 0 500.000000 500.000000"
 preserveAspectRatio="xMidYMid meet">

<g transform="translate(0.000000,500.000000) scale(0.100000,-0.100000)"
fill="#000000" stroke="none">
<path d="M1790 3109 c-24 -11 -53 -27 -62 -36 -14 -13 -18 -13 -22 -2 -15 51
-12 49 -90 49 -70 0 -76 -2 -81 -22 -18 -77 -75 -355 -75 -365 0 -10 25 -13
94 -13 l93 0 28 142 c29 146 44 178 85 178 11 0 23 -7 27 -16 3 -9 -8 -81 -24
-160 l-30 -144 88 0 c49 0 89 4 89 8 0 4 13 70 29 147 30 144 43 169 86 163
30 -4 29 -45 -3 -190 l-29 -128 92 0 92 0 32 148 c17 81 31 157 31 170 0 91
-116 119 -221 53 l-50 -31 -9 25 c-19 49 -92 59 -170 24z"/>
<path d="M1586 2513 c-9 -29 -126 -587 -126 -600 0 -10 25 -13 94 -13 l93 0
29 142 c21 101 35 147 48 160 24 22 55 23 63 2 3 -8 -8 -81 -25 -160 l-30
-145 96 3 96 3 32 152 c17 84 29 164 27 178 -16 80 -141 95 -230 28 -18 -13
-33 -22 -33 -19 0 3 14 67 30 143 17 75 30 138 30 140 0 2 -42 3 -94 3 -81 0
-95 -2 -100 -17z"/>
<path d="M3673 2374 c-26 -26 -60 -48 -91 -58 -48 -16 -62 -30 -62 -62 0 -9
12 -14 36 -14 26 0 35 -4 31 -13 -3 -8 -15 -62 -27 -122 -36 -179 -17 -211
127 -209 46 0 85 2 87 5 2 2 7 16 11 31 6 23 3 27 -24 33 -38 8 -39 20 -7 165
l22 105 35 3 c36 4 49 15 49 45 0 13 -8 17 -36 17 -27 0 -35 4 -31 14 3 7 9
34 12 60 l7 46 -48 -2 c-43 -1 -54 -6 -91 -44z"/>
<path d="M2335 2298 c-11 -6 -34 -24 -52 -41 l-32 -30 -6 37 -7 36 -77 0 -77
0 -38 -182 c-20 -101 -40 -191 -42 -200 -5 -16 4 -18 90 -18 91 0 96 1 101 23
3 12 16 73 29 135 13 62 30 119 36 127 31 37 70 2 70 -61 0 -22 4 -24 50 -24
43 0 50 3 55 23 38 164 37 161 19 174 -22 16 -92 17 -119 1z"/>
<path d="M2650 2296 c-69 -18 -117 -52 -148 -104 -23 -40 -27 -59 -27 -119 0
-76 13 -106 66 -145 39 -29 138 -42 224 -29 100 15 123 27 135 70 19 69 18 71
-59 71 -68 0 -70 0 -91 -35 -21 -34 -59 -53 -79 -40 -6 3 -11 33 -11 66 l0 59
133 0 c134 0 134 0 145 25 7 14 12 48 12 76 0 59 -25 91 -86 108 -51 14 -157
13 -214 -3z m130 -67 c7 -12 9 -37 5 -60 l-7 -39 -54 0 c-53 0 -53 0 -44 25
18 46 39 83 52 88 25 10 37 7 48 -14z"/>
<path d="M3135 2299 c-76 -17 -94 -29 -105 -68 -5 -20 -10 -39 -10 -43 0 -5
29 -8 65 -8 61 0 65 1 80 30 17 33 59 49 84 33 9 -6 17 -25 19 -44 5 -45 -17
-59 -93 -59 -135 0 -215 -50 -215 -134 0 -110 133 -149 238 -69 27 20 33 22
37 9 3 -9 7 -23 10 -31 3 -12 21 -15 78 -15 l74 0 22 103 c33 151 36 196 14
237 -14 27 -29 39 -68 52 -54 19 -164 22 -230 7z m111 -221 c-3 -13 -6 -31 -6
-40 0 -47 -79 -77 -100 -39 -22 42 27 101 83 101 26 0 29 -3 23 -22z"/>
</g>
</svg>
